# xmcd
#
# Track frame offsets:
#	150
#	16480
#	32988
#	49090
#	68106
#	88356
#	105125
#	118986
#	132735
#	144614
#	161563
#	179206
#	194698
#	212102
#	227287
#	243450
#	258245
#	275696
#
# Disc length: 3858 seconds
#
# Revision: 1
# Processed by: cddbd v1.5.2PL0 Copyright (c) Steve Scherf et al.
# Submitted via: audiograbber 1.82.02
#
DISCID=180f1012
DTITLE=Various Artist - Country Radio - April 2014
DYEAR=2014
DGENRE=Country
TTITLE0=Gloriana - Best Night Ever
TTITLE1=Florida Georgia Line (Ft. Luke Bryan) - This Is How We Roll
TTITLE2=Jennifer Nettles - Me Without You
TTITLE3=Tim McGraw - Lookin' For That Girl
TTITLE4=Hunter Hayes - Invisible
TTITLE5=Eric Paslay - Song About A Girl
TTITLE6=Luke Pilgrim - Goin' Home
TTITLE7=Laura Lee Bishop - Real Man
TTITLE8=Gwen Sebastian (Ft. Miranda Lambert) - Annie s New Gun
TTITLE9=Lexi Larsen - You Can Leave
TTITLE10=Sherry Lynn - Girls Will Be Girls
TTITLE11=Mandy Barnett - Blue Blue Day
TTITLE12=Darius Rucker - Miss You (Radio Edit)
TTITLE13=Ashley Gearing - Boomerang
TTITLE14=Chuck Wicks - Us Again
TTITLE15=Eli Young Band - Dust
TTITLE16=Miranda Lambert - Automatic (Radio Edit)
TTITLE17=Courtney Rau - In That Moment
EXTD=
EXTT0=
EXTT1=
EXTT2=
EXTT3=
EXTT4=
EXTT5=
EXTT6=
EXTT7=
EXTT8=
EXTT9=
EXTT10=
EXTT11=
EXTT12=
EXTT13=
EXTT14=
EXTT15=
EXTT16=
EXTT17=
PLAYORDER=
